<svg width="40" height="40" viewBox="0 0 40 40" fill="none" xmlns="http://www.w3.org/2000/svg">
<rect width="40" height="40" rx="20" fill="white"/>
<g clip-path="url(#clip0_447_3656)">
<path d="M20.0017 33.7701C22.7209 33.7701 24.9253 32.4974 24.9253 30.9275C24.9253 29.3576 22.7209 28.085 20.0017 28.085C17.2825 28.085 15.0781 29.3576 15.0781 30.9275C15.0781 32.4974 17.2825 33.7701 20.0017 33.7701Z" fill="#E6007A"/>
<path d="M31.8237 26.9945C33.1833 24.6569 33.1752 22.1256 31.8057 21.3406C30.4361 20.5557 28.2237 21.8144 26.8641 24.1519C25.5045 26.4895 25.5126 29.0208 26.8821 29.8058C28.2517 30.5907 30.4641 29.3321 31.8237 26.9945Z" fill="#E6007A"/>
<path d="M20.0017 12.3518C22.7209 12.3518 24.9253 11.0791 24.9253 9.50921C24.9253 7.93931 22.7209 6.66666 20.0017 6.66666C17.2825 6.66666 15.0781 7.93931 15.0781 9.50921C15.0781 11.0791 17.2825 12.3518 20.0017 12.3518Z" fill="#E6007A"/>
<path d="M13.1397 16.2867C14.4993 13.9491 14.4905 11.4173 13.12 10.6319C11.7495 9.84637 9.53628 11.1046 8.17666 13.4422C6.81704 15.7798 6.82586 18.3116 8.19637 19.0971C9.56688 19.8826 11.7801 18.6243 13.1397 16.2867Z" fill="#E6007A"/>
<path d="M13.1199 29.8052C14.4904 29.0197 14.4993 26.488 13.1396 24.1504C11.78 21.8128 9.56685 20.5545 8.19635 21.34C6.82585 22.1255 6.81703 24.6573 8.17664 26.9949C9.53625 29.3324 11.7494 30.5907 13.1199 29.8052Z" fill="#E6007A"/>
<path d="M31.8058 19.0974C33.1754 18.3125 33.1835 15.7812 31.8239 13.4436C30.4642 11.106 28.2518 9.84734 26.8822 10.6323C25.5126 11.4172 25.5045 13.9485 26.8642 16.2861C28.2238 18.6237 30.4362 19.8824 31.8058 19.0974Z" fill="#E6007A"/>
</g>
<defs>
<clipPath id="clip0_447_3656">
<rect width="28.5714" height="27.1186" fill="white" transform="translate(5.71484 6.66666)"/>
</clipPath>
</defs>
</svg>
